<?xml version="1.0" encoding="UTF-8" standalone="no"?>
<!-- Created with Inkscape (http://www.inkscape.org/) -->

<svg
   xmlns:dc="http://purl.org/dc/elements/1.1/"
   xmlns:cc="http://creativecommons.org/ns#"
   xmlns:rdf="http://www.w3.org/1999/02/22-rdf-syntax-ns#"
   xmlns:svg="http://www.w3.org/2000/svg"
   xmlns="http://www.w3.org/2000/svg"
   xmlns:sodipodi="http://sodipodi.sourceforge.net/DTD/sodipodi-0.dtd"
   xmlns:inkscape="http://www.inkscape.org/namespaces/inkscape"
   width="332.76749"
   height="69.510628"
   id="svg4252"
   version="1.1"
   inkscape:version="0.91 r13725"
   sodipodi:docname="inLibro_en.svg">
  <defs
     id="defs4254">
    <clipPath
       clipPathUnits="userSpaceOnUse"
       id="clipPath30">
      <path
         inkscape:connector-curvature="0"
         d="M 0,792 612,792 612,0 0,0 0,792 z"
         id="path32" />
    </clipPath>
  </defs>
  <sodipodi:namedview
     id="base"
     pagecolor="#ffffff"
     bordercolor="#666666"
     borderopacity="1.0"
     inkscape:pageopacity="0.0"
     inkscape:pageshadow="2"
     inkscape:zoom="2"
     inkscape:cx="297.83017"
     inkscape:cy="44.728359"
     inkscape:document-units="px"
     inkscape:current-layer="g28"
     showgrid="false"
     fit-margin-top="1"
     fit-margin-right="1"
     fit-margin-bottom="1"
     fit-margin-left="1"
     inkscape:window-width="1867"
     inkscape:window-height="1056"
     inkscape:window-x="53"
     inkscape:window-y="24"
     inkscape:window-maximized="1"
     showguides="true"
     inkscape:guide-bbox="true">
    <sodipodi:guide
       position="331.5,-24.5"
       orientation="1,0"
       id="guide3436" />
  </sodipodi:namedview>
  <metadata
     id="metadata4257">
    <rdf:RDF>
      <cc:Work
         rdf:about="">
        <dc:format>image/svg+xml</dc:format>
        <dc:type
           rdf:resource="http://purl.org/dc/dcmitype/StillImage" />
        <dc:title></dc:title>
      </cc:Work>
    </rdf:RDF>
  </metadata>
  <g
     inkscape:label="Layer 1"
     inkscape:groupmode="layer"
     id="layer1"
     transform="translate(-208.61625,-497.60688)">
    <path
       inkscape:connector-curvature="0"
       d="m 252.76875,520.9465 -43.1525,0 0,-4.17875 43.1525,0 0,4.17875 z"
       style="fill:#028cb5;fill-opacity:1;fill-rule:nonzero;stroke:none"
       id="path12" />
    <path
       inkscape:connector-curvature="0"
       d="m 252.76875,503.549 -43.1525,0 0,-4.18 43.1525,0 0,4.18 z"
       style="fill:#028cb5;fill-opacity:1;fill-rule:nonzero;stroke:none"
       id="path14" />
    <g
       id="g16"
       transform="matrix(1.25,0,0,-1.25,252.76875,529.28062)">
      <path
         inkscape:connector-curvature="0"
         d="M 0,0 -34.522,0 -34.521,3.342 0,3.342 0,0 z"
         style="fill:#59c134;fill-opacity:1;fill-rule:nonzero;stroke:none"
         id="path18" />
    </g>
    <path
       inkscape:connector-curvature="0"
       d="m 258.3175,512.199 -43.15125,0 0,-4.17875 43.15125,0 0,4.17875 z"
       style="fill:#59c134;fill-opacity:1;fill-rule:nonzero;stroke:none"
       id="path20" />
    <g
       id="g22"
       transform="matrix(1.25,0,0,-1.25,252.76875,537.79325)">
      <path
         inkscape:connector-curvature="0"
         d="M 0,0 -34.522,0 -34.521,3.344 0,3.344 0,0 z"
         style="fill:#028cb5;fill-opacity:1;fill-rule:nonzero;stroke:none"
         id="path24" />
    </g>
    <g
       transform="matrix(1.25,0,0,-1.25,164.645,1373.074)"
       id="g26">
      <g
         id="g28"
         clip-path="url(#clipPath30)">
        <g
           id="g34"
           transform="translate(92.8828,699.4722)">
          <path
             inkscape:connector-curvature="0"
             d="m 0,0 c 0.666,0 1,-0.334 1,-1 l 0,-29.87 c 0,-0.67 -0.334,-1.004 -1,-1.004 l -4.92,0 c -0.697,0 -1.046,0.334 -1.046,1.004 l 0,29.87 c 0,0.666 0.349,1 1.046,1 L 0,0 z"
             style="fill:#59c134;fill-opacity:1;fill-rule:nonzero;stroke:none"
             id="path36" />
        </g>
        <g
           id="g38"
           transform="translate(108.0449,699.4722)">
          <path
             inkscape:connector-curvature="0"
             d="M 0,0 C 0.73,0 1.337,-0.029 1.822,-0.09 2.306,-0.151 2.73,-0.281 3.096,-0.478 3.463,-0.675 3.811,-0.948 4.144,-1.298 4.478,-1.646 4.855,-2.11 5.28,-2.685 l 16.943,-22.221 c 0.12,-0.215 0.318,-0.319 0.589,-0.319 l 0.412,0 c 0.241,0 0.363,0.15 0.363,0.454 l 0,23.771 c 0,0.666 0.334,1 1.003,1 l 4.778,0 c 0.67,0 1.004,-0.334 1.004,-1 l 0,-26.138 c 0,-1.851 -0.334,-3.106 -1.004,-3.757 -0.666,-0.653 -1.698,-0.979 -3.093,-0.979 l -3.919,0 c -0.697,0 -1.28,0.029 -1.752,0.091 -0.469,0.06 -0.885,0.181 -1.252,0.364 -0.365,0.18 -0.72,0.447 -1.07,0.798 -0.349,0.348 -0.753,0.826 -1.207,1.433 L 0.089,-6.967 c -0.181,0.212 -0.378,0.32 -0.59,0.32 l -0.41,0 c -0.243,0 -0.365,-0.154 -0.365,-0.456 l 0,-23.767 c 0,-0.67 -0.334,-1.004 -1.001,-1.004 l -4.781,0 c -0.698,0 -1.047,0.334 -1.047,1.004 l 0,26.136 c 0,1.851 0.334,3.104 1.001,3.755 C -6.437,-0.327 -5.405,0 -4.007,0 L 0,0 z"
             style="fill:#59c134;fill-opacity:1;fill-rule:nonzero;stroke:none"
             id="path40" />
        </g>
        <g
           id="g42"
           transform="translate(150.3467,699.4722)">
          <path
             inkscape:connector-curvature="0"
             d="m 0,0 c 0.667,0 1.004,-0.334 1.004,-1 l 0,-18.169 c 0,-1.217 0.095,-2.225 0.294,-3.027 0.197,-0.807 0.525,-1.445 0.98,-1.914 0.452,-0.472 1.068,-0.806 1.843,-1.003 0.775,-0.198 1.753,-0.295 2.94,-0.295 l 12.413,0 c 0.668,0 1.004,-0.335 1.004,-1.004 l 0,-4.458 c 0,-0.67 -0.336,-1.004 -1.004,-1.004 l -12.689,0 c -2.308,0 -4.264,0.212 -5.873,0.635 -1.612,0.427 -2.923,1.118 -3.939,2.073 -1.019,0.958 -1.762,2.201 -2.231,3.734 -0.472,1.532 -0.708,3.393 -0.708,5.579 l 0,18.853 c 0,0.666 0.35,1 1.049,1 L 0,0 z"
             style="fill:#028cb5;fill-opacity:1;fill-rule:nonzero;stroke:none"
             id="path44" />
        </g>
        <g
           id="g46"
           transform="translate(180.8867,688.8726)">
          <path
             inkscape:connector-curvature="0"
             d="m 0,0 c 0.667,0 1,-0.335 1,-1.002 l 0,-19.269 c 0,-0.669 -0.333,-1.003 -1,-1.003 l -4.92,0 c -0.698,0 -1.046,0.334 -1.046,1.003 l 0,19.269 C -5.966,-0.335 -5.618,0 -4.92,0 L 0,0 z"
             style="fill:#028cb5;fill-opacity:1;fill-rule:nonzero;stroke:none"
             id="path48" />
        </g>
        <g
           id="g50"
           transform="translate(180.8867,699.4722)">
          <path
             inkscape:connector-curvature="0"
             d="M 0,0 C 0.667,0 1,-0.334 1,-1 L 1,-6.426 C 1,-7.094 0.667,-7.429 0,-7.429 l -4.92,0 c -0.698,0 -1.046,0.335 -1.046,1.003 l 0,5.426 c 0,0.666 0.348,1 1.046,1 L 0,0 z"
             style="fill:#028cb5;fill-opacity:1;fill-rule:nonzero;stroke:none"
             id="path52" />
        </g>
        <g
           id="g54"
           transform="translate(195.4004,680.7705)">
          <path
             inkscape:connector-curvature="0"
             d="m 0,0 0,-5.808 c 0,-0.393 0.195,-0.591 0.593,-0.591 l 16.714,0 c 1.214,0 2.077,0.22 2.594,0.659 0.517,0.44 0.776,1.145 0.776,2.117 l 0,0.753 c 0,0.94 -0.281,1.655 -0.846,2.141 C 19.272,-0.243 18.232,0 16.714,0 L 0,0 z m 0,4.962 16.714,0 c 1.518,0 2.55,0.227 3.097,0.683 0.543,0.457 0.82,1.124 0.82,2.004 l 0,2.037 c 0,0.942 -0.268,1.632 -0.8,2.072 -0.528,0.439 -1.385,0.661 -2.571,0.661 l -16.667,0 C 0.195,12.419 0,12.221 0,11.827 L 0,4.962 z m 18.672,13.74 c 3.125,0 5.35,-0.623 6.671,-1.867 1.321,-1.243 1.98,-3.125 1.98,-5.646 l 0,-2.672 c 0,-2.553 -0.972,-4.481 -2.913,-5.786 2.095,-1.213 3.144,-3.171 3.144,-5.874 l 0,-1.662 c 0,-1.217 -0.14,-2.308 -0.413,-3.279 -0.274,-0.973 -0.721,-1.8 -1.342,-2.48 -0.625,-0.685 -1.452,-1.208 -2.483,-1.574 -1.034,-0.364 -2.308,-0.547 -3.823,-0.547 l -25.093,0 c -0.911,0 -1.372,0.456 -1.372,1.367 l 0,28.653 c 0,0.911 0.461,1.367 1.372,1.367 l 24.272,0 z"
             style="fill:#028cb5;fill-opacity:1;fill-rule:nonzero;stroke:none"
             id="path56" />
        </g>
        <g
           id="g58"
           transform="translate(235.2939,685.6587)">
          <path
             inkscape:connector-curvature="0"
             d="m 0,0 14.507,0 c 1.548,0 2.637,0.334 3.277,1.004 0.635,0.667 0.956,1.194 0.956,2.561 l 0,-0.041 c 0,1.366 -0.321,2.382 -0.956,3.05 -0.64,0.668 -1.729,1.003 -3.277,1.003 l -13.918,0 C 0.195,7.577 0,7.395 0,7.029 L 0,0 z m 15.916,13.813 c 3.489,0 5.993,-0.791 7.515,-2.368 1.517,-1.576 2.274,-3.914 2.274,-7.011 l 0,-1.129 c 0,-2.613 -0.53,-3.7 -1.594,-5.217 -1.062,-1.517 -2.792,-2.489 -5.189,-2.914 l 7.784,-11.608 c 0.153,-0.152 0.2,-0.379 0.141,-0.683 -0.064,-0.302 -0.307,-0.456 -0.73,-0.456 l -5.875,0 c -0.392,0 -0.667,0.046 -0.821,0.137 -0.151,0.093 -0.303,0.243 -0.452,0.457 L 11.773,-5.555 0,-5.555 0,-16.568 c 0,-0.67 -0.338,-1.005 -1.006,-1.005 l -4.918,0 c -0.696,0 -1.046,0.335 -1.046,2.469 l 0,29.019 c 0,-0.558 0.456,-0.102 1.367,-0.102 l 21.519,0 z"
             style="fill:#028cb5;fill-opacity:1;fill-rule:nonzero;stroke:none"
             id="path60" />
        </g>
        <g
           id="g62"
           transform="translate(272.874,680.1206)">
          <path
             inkscape:connector-curvature="0"
             d="m 0,0 c 0,-1.184 0.098,-2.18 0.295,-2.982 0.197,-0.806 0.524,-1.443 0.981,-1.914 0.457,-0.469 1.069,-0.802 1.843,-1.001 0.774,-0.199 1.752,-0.297 2.938,-0.297 l 8.636,0 c 1.182,0 2.163,0.098 2.939,0.297 0.773,0.199 1.388,0.532 1.844,1.001 0.454,0.471 0.779,1.108 0.977,1.914 0.196,0.802 0.294,1.798 0.294,2.982 l 0,6.828 c 0,1.186 -0.098,2.18 -0.294,2.984 -0.198,0.806 -0.523,1.442 -0.977,1.914 -0.456,0.468 -1.071,0.804 -1.844,1.002 -0.776,0.195 -1.757,0.295 -2.939,0.295 l -8.636,0 c -1.186,0 -2.164,-0.1 -2.938,-0.295 C 2.345,12.53 1.733,12.194 1.276,11.726 0.819,11.254 0.492,10.618 0.295,9.812 0.098,9.008 0,8.014 0,6.828 L 0,0 z m 14.969,19.352 c 2.303,0 4.268,-0.222 5.894,-0.66 1.622,-0.44 2.945,-1.137 3.962,-2.096 1.017,-0.955 1.753,-2.192 2.21,-3.71 0.454,-1.519 0.682,-3.37 0.682,-5.555 l 0,-7.832 c 0,-2.186 -0.228,-4.047 -0.682,-5.579 -0.457,-1.533 -1.193,-2.777 -2.21,-3.734 -1.017,-0.956 -2.34,-1.647 -3.962,-2.073 -1.626,-0.423 -3.591,-0.635 -5.894,-0.635 l -9.186,0 c -2.308,0 -4.265,0.212 -5.875,0.635 -1.608,0.426 -2.922,1.117 -3.938,2.073 -1.018,0.957 -1.762,2.201 -2.233,3.734 -0.47,1.532 -0.707,3.393 -0.707,5.579 l 0,7.832 c 0,2.185 0.237,4.036 0.707,5.555 0.471,1.518 1.215,2.755 2.233,3.71 1.016,0.959 2.33,1.656 3.938,2.096 1.61,0.438 3.567,0.66 5.875,0.66 l 9.186,0 z"
             style="fill:#028cb5;fill-opacity:1;fill-rule:nonzero;stroke:none"
             id="path64" />
        </g>
        <text
           xml:space="preserve"
           style="font-style:normal;font-variant:normal;font-weight:normal;font-stretch:normal;font-size:11.4839735px;line-height:125%;font-family:FontAwesome;-inkscape-font-specification:FontAwesome;letter-spacing:0px;word-spacing:0px;fill:#656769;fill-opacity:1;stroke:none;stroke-width:1px;stroke-linecap:butt;stroke-linejoin:miter;stroke-opacity:1"
           x="83.007271"
           y="-667.33594"
           id="text3432"
           sodipodi:linespacing="125%"
           transform="scale(1.0304989,-0.97040376)"><tspan
             sodipodi:role="line"
             id="tspan3434"
             x="83.007271"
             y="-667.33594"
             style="font-style:normal;font-variant:normal;font-weight:normal;font-stretch:normal;font-size:12px;font-family:'Titillium Web';-inkscape-font-specification:'Titillium Web';fill:#656769">Document technologies specialists</tspan></text>
      </g>
    </g>
  </g>
</svg>
